<?xml version="1.0" encoding="UTF-8" standalone="no"?>
<!-- Created with Inkscape (http://www.inkscape.org/) -->

<svg
   xmlns:dc="http://purl.org/dc/elements/1.1/"
   xmlns:cc="http://creativecommons.org/ns#"
   xmlns:rdf="http://www.w3.org/1999/02/22-rdf-syntax-ns#"
   xmlns:svg="http://www.w3.org/2000/svg"
   xmlns="http://www.w3.org/2000/svg"
   xmlns:sodipodi="http://sodipodi.sourceforge.net/DTD/sodipodi-0.dtd"
   xmlns:inkscape="http://www.inkscape.org/namespaces/inkscape"
   version="1.1"
   id="svg2"
   xml:space="preserve"
   width="3401.468"
   height="3401.5813"
   viewBox="0 0 3401.468 3401.5813"
   sodipodi:docname="ZtoA.svg"
   inkscape:version="0.92.5 (2060ec1f9f, 2020-04-08)"><metadata
     id="metadata8"><rdf:RDF><cc:Work
         rdf:about=""><dc:format>image/svg+xml</dc:format><dc:type
           rdf:resource="http://purl.org/dc/dcmitype/StillImage" /><dc:title></dc:title></cc:Work></rdf:RDF></metadata><defs
     id="defs6"><clipPath
       clipPathUnits="userSpaceOnUse"
       id="clipPath18"><path
         d="M 0,566.929 H 566.929 V 0 H 0 Z"
         id="path16"
         inkscape:connector-curvature="0" /></clipPath></defs><sodipodi:namedview
     pagecolor="#ffffff"
     bordercolor="#666666"
     borderopacity="1"
     objecttolerance="10"
     gridtolerance="10"
     guidetolerance="10"
     inkscape:pageopacity="0"
     inkscape:pageshadow="2"
     inkscape:window-width="1848"
     inkscape:window-height="1016"
     id="namedview4"
     showgrid="false"
     fit-margin-top="0"
     fit-margin-left="0"
     fit-margin-right="0"
     fit-margin-bottom="0"
     inkscape:zoom="0.62441681"
     inkscape:cx="1690.9256"
     inkscape:cy="1716.9463"
     inkscape:window-x="72"
     inkscape:window-y="27"
     inkscape:window-maximized="1"
     inkscape:current-layer="g10" /><g
     id="g10"
     inkscape:groupmode="layer"
     inkscape:label="ZtoA"
     transform="matrix(1.3333333,0,0,-1.3333333,1322.7806,2078.743)"><g
       id="g12"
       transform="matrix(5,0,0,5,-1133.86,-1133.8572)"><g
         id="g14"
         clip-path="url(#clipPath18)"><g
           id="g20"
           transform="translate(338.1049,200.4037)"><path
             d="m 0,0 66.389,-22.676 -214.282,-56.036 15.083,29.348 h -110.97 l 131.522,261.79 H -274.566 C -296.924,174.5 -309.75,130.285 -309.75,83.061 c 0,-111.623 71.706,-206.523 171.573,-241.105 l 36.387,72.291 73.68,29.884 -57.325,-114.332 c 10.101,-1.237 20.385,-1.857 30.803,-1.857 61.288,0 117.509,21.622 161.506,57.626 L 57.358,113.964 Z"
             style="fill:#231f20;fill-opacity:1;fill-rule:nonzero;stroke:none"
             id="path22"
             inkscape:connector-curvature="0" /></g><g
           id="g24"
           transform="translate(283.4731,538.5829)"><path
             d="M 0,0 C -66.422,0 -126.907,-25.385 -172.292,-66.974 H 35.485 l -131.84,-261.941 h 47.291 l 11.221,22.308 42.174,-14.398 127.86,254.031 73.127,-339.567 c 31.288,42.342 49.784,94.716 49.784,151.423 C 255.102,-114.231 140.887,0 0,0"
             style="fill:#231f20;fill-opacity:1;fill-rule:nonzero;stroke:none"
             id="path26"
             inkscape:connector-curvature="0" /></g></g></g></g></svg>